<svg width="165" height="97" viewBox="0 0 165 97" fill="none" xmlns="http://www.w3.org/2000/svg">
<g clip-path="url(#clip0)">
<path d="M98.0815 47.0452C96.9334 46.3004 94.1452 46.8963 91.6849 47.6411C90.5368 45.7046 89.2247 43.917 87.4205 42.2785C88.8967 40.7889 90.2088 39.0014 90.0448 37.9586C89.7167 35.2773 83.6481 30.9575 80.8599 31.5533C79.3837 31.8513 77.5796 34.0857 76.2674 36.1711C73.9712 35.5753 71.347 35.1284 68.8867 35.1284C68.3947 32.894 67.7386 30.6596 66.5905 29.9148C64.2943 28.2762 56.7495 30.3617 55.2734 32.5961C54.6173 33.6388 55.2734 36.0222 56.0935 38.1076C53.6332 39.2993 51.501 40.9378 49.6969 42.7254C47.4006 41.6826 44.7764 40.6399 43.3002 40.9378C40.512 41.6826 37.7237 48.2369 38.7078 50.6203C39.1998 51.663 41.332 52.5567 43.4642 53.3015C42.9722 55.238 42.8082 57.1745 42.8082 59.111C40.512 59.26 38.3798 59.4089 37.5597 60.3027C35.4275 62.0902 36.4116 69.0913 38.7078 70.8789C40.0199 71.9216 43.7923 71.3257 46.5806 70.7299C47.4006 72.0705 48.5487 73.2622 49.6969 74.4539C47.7287 76.2414 45.4324 78.7738 45.5965 80.1144C45.9245 82.7957 51.9931 87.1155 54.7813 86.5197C56.5855 86.0728 58.7177 83.0936 60.1939 80.7102C62.6541 81.455 65.1143 81.9019 67.7386 82.0509C68.0666 84.4342 68.8867 87.1155 70.1988 87.7114C72.6591 89.052 80.2038 87.4135 81.5159 85.0301C82.008 83.8384 81.3519 81.604 80.5318 79.5186C82.9921 78.3269 85.2883 76.8373 87.0925 75.0498C89.5527 76.3904 92.997 77.88 94.4732 77.4331C97.2615 76.6883 100.05 70.1341 99.0656 67.7507C98.5736 66.559 95.9493 65.5163 93.4891 64.9204C93.9811 63.1329 94.3092 61.3454 94.3092 59.5579C96.7694 59.26 99.3937 58.6641 100.378 57.7704C102.346 55.238 100.542 48.5348 98.0815 47.0452ZM72.167 70.432C64.9503 72.2195 57.4056 68.1976 55.6014 61.6433C53.6332 55.0891 58.0617 48.2369 65.2784 46.5983C72.4951 44.8108 80.0398 48.8327 81.844 55.387C83.8122 61.9412 79.5477 68.6445 72.167 70.432Z" fill="#E8E8E8"/>
<path d="M131.377 13.0823C130.557 12.6354 128.588 12.9334 126.948 13.5292C126.128 12.1886 125.144 10.8479 123.996 9.80519C124.98 8.76247 125.964 7.57079 125.8 6.82598C125.472 5.03846 121.372 1.91029 119.404 2.35717C118.419 2.50614 117.107 4.1447 116.123 5.48534C114.483 5.03846 112.679 4.74054 111.039 4.74054C110.711 3.25094 110.219 1.61237 109.563 1.16549C107.922 0.12277 102.838 1.46341 101.854 3.10198C101.362 3.84678 101.854 5.48534 102.346 6.97494C100.706 7.86871 99.2296 8.91143 97.9175 10.1031C96.2773 9.35831 94.4732 8.61351 93.4891 8.91143C91.5209 9.35831 89.5527 13.9761 90.3728 15.6146C90.7008 16.3594 92.1769 16.9553 93.6531 17.4022C93.325 18.7428 93.161 20.0835 93.161 21.4241C91.6849 21.4241 90.0447 21.722 89.5527 22.1689C88.0765 23.5095 88.7326 28.2763 90.3728 29.4679C91.1928 30.2127 93.8171 29.7659 95.7853 29.319C96.4414 30.2128 97.0974 31.1065 97.9175 31.8513C96.6054 33.043 94.9652 34.8305 95.1292 35.8732C95.4573 37.6608 99.5577 40.7889 101.526 40.3421C102.674 40.0441 104.314 37.9587 105.298 36.3201C106.938 36.916 108.743 37.2139 110.547 37.2139C110.875 38.8524 111.367 40.64 112.187 41.0869C113.991 41.9806 119.076 40.9379 119.896 39.1504C120.224 38.4056 119.896 36.767 119.24 35.2774C121.044 34.5326 122.52 33.4899 123.832 32.1492C125.472 33.043 127.932 34.0857 128.916 33.7878C130.885 33.3409 132.853 28.7231 132.033 27.0846C131.705 26.3398 129.901 25.595 128.26 25.1481C128.588 23.9564 128.752 22.7647 128.916 21.4241C130.557 21.2751 132.525 20.8283 133.017 20.0835C134.329 18.7428 133.017 14.125 131.377 13.0823ZM113.499 29.17C108.415 30.3617 103.33 27.6804 102.018 23.0627C100.706 18.4449 103.658 13.8271 108.743 12.6354C113.827 11.4438 118.912 14.125 120.224 18.7428C121.536 23.3606 118.583 27.9783 113.499 29.17Z" fill="#E8E8E8"/>
<path d="M28.2108 95.4574L40.84 29.17L55.7655 95.4574H28.2108Z" fill="#F6F6F6"/>
<path d="M54.2893 95.4574L66.9185 53.4506L81.844 95.4574H54.2893Z" fill="#F6F6F6"/>
<path d="M0.656128 95.4574L13.2854 69.0914L28.2108 95.4574H0.656128Z" fill="#F6F6F6"/>
<path d="M110.875 95.6063L123.504 29.4679L138.429 95.6063H110.875Z" fill="#F6F6F6"/>
<path d="M136.953 95.6064L149.583 53.7485L164.508 95.6064H136.953Z" fill="#F6F6F6"/>
<path d="M83.3202 95.6063L95.7854 69.3893L110.875 95.6063H83.3202Z" fill="#F6F6F6"/>
<path d="M96.1134 67.8997L66.4265 51.5141L40.512 28.4252L16.0736 63.2819L14.7615 62.5371L40.348 26.0419L67.5746 50.3224L95.6213 65.9632L123.34 26.0419L146.138 46.8963L144.99 47.939L123.668 28.4252L96.1134 67.8997Z" fill="#007CF4"/>
<path d="M42.6442 27.2336C42.6442 28.2763 41.6601 29.1701 40.512 29.1701C39.3639 29.1701 38.3798 28.2763 38.3798 27.2336C38.3798 26.1909 39.3639 25.2971 40.512 25.2971C41.6601 25.2971 42.6442 26.0419 42.6442 27.2336Z" fill="black"/>
<path d="M125.636 27.2336C125.636 28.2763 124.652 29.1701 123.504 29.1701C122.356 29.1701 121.372 28.2763 121.372 27.2336C121.372 26.1909 122.356 25.2971 123.504 25.2971C124.652 25.2971 125.636 26.0419 125.636 27.2336Z" fill="black"/>
<path d="M98.0816 67.0059C98.0816 68.0487 97.0975 68.9424 95.9493 68.9424C94.8012 68.9424 93.8171 68.0487 93.8171 67.0059C93.8171 65.9632 94.8012 65.0695 95.9493 65.0695C97.0975 64.9205 98.0816 65.8143 98.0816 67.0059Z" fill="black"/>
<path d="M69.2147 50.9182C69.2147 51.9609 68.2306 52.8547 67.0825 52.8547C65.9344 52.8547 64.9503 51.9609 64.9503 50.9182C64.9503 49.8755 65.9344 48.9817 67.0825 48.9817C68.2306 48.9817 69.2147 49.8755 69.2147 50.9182Z" fill="black"/>
<path d="M15.4176 66.2612C15.4176 67.3039 14.4335 68.1977 13.2854 68.1977C12.1373 68.1977 11.1532 67.3039 11.1532 66.2612C11.1532 65.2185 12.1373 64.3247 13.2854 64.3247C14.4335 64.1758 15.4176 65.0695 15.4176 66.2612Z" fill="black"/>
<path d="M151.715 50.9182C151.715 51.9609 150.731 52.8547 149.583 52.8547C148.434 52.8547 147.45 51.9609 147.45 50.9182C147.45 49.8755 148.434 48.9817 149.583 48.9817C150.731 48.9817 151.715 49.8755 151.715 50.9182Z" fill="black"/>
</g>
<defs>
<clipPath id="clip0">
<rect width="165" height="95.3346" fill="white" transform="translate(0 0.718628)"/>
</clipPath>
</defs>
</svg>
