<svg width="48" height="48" viewBox="0 0 48 48" fill="none" xmlns="http://www.w3.org/2000/svg">
<g clip-path="url(#clip0)">
<path d="M45.6846 25.5499C45.2956 25.5499 44.9801 25.8654 44.9801 26.2545V45.2933C44.9801 46.0089 44.3979 46.591 43.6823 46.591H27.0914C26.3758 46.591 25.7937 46.0088 25.7937 45.2933V43.4208C25.7937 43.0318 25.4782 42.7163 25.0891 42.7163C24.7001 42.7163 24.3846 43.0318 24.3846 43.4208V45.2933C24.3846 45.7633 24.5052 46.2055 24.7168 46.591H3.25487C3.1254 46.591 3.02002 46.4856 3.02002 46.3561V29.3595C3.02002 28.9704 2.70456 28.6549 2.31549 28.6549C1.92643 28.6549 1.61096 28.9703 1.61096 29.3595V46.3562C1.61096 47.2626 2.3484 48.0001 3.25477 48.0001H43.6822C45.1747 48.0001 46.389 46.7858 46.389 45.2933V26.2545C46.389 25.8654 46.0737 25.5499 45.6846 25.5499Z" fill="#007CF4"/>
<path d="M43.6832 15.1296H36.8729V9.43444C36.8733 9.24938 36.7973 9.06675 36.6665 8.93616L27.9368 0.206439C27.8062 0.0756576 27.6235 -0.000373619 27.4385 1.38069e-06H3.25575C2.34938 1.38069e-06 1.61194 0.737439 1.61194 1.64381V26.5414C1.61194 26.9304 1.92741 27.2459 2.31647 27.2459C2.70553 27.2459 3.021 26.9304 3.021 26.5414V1.64381C3.021 1.51435 3.12638 1.40897 3.25585 1.40897H26.734V7.55569C26.734 8.98003 27.8929 10.1389 29.3172 10.1389H35.4639V15.1295H27.0923C25.5998 15.1295 24.3856 16.3437 24.3856 17.8362V17.9465H13.2218C12.8328 17.9465 12.5173 18.2618 12.5173 18.651C12.5173 19.0401 12.8328 19.3555 13.2218 19.3555H24.3856V24.1409H13.2218C12.8328 24.1409 12.5173 24.4564 12.5173 24.8454C12.5173 25.2345 12.8328 25.55 13.2218 25.55H24.3856V30.3353H13.2218C12.8328 30.3353 12.5173 30.6508 12.5173 31.0399C12.5173 31.4289 12.8328 31.7444 13.2218 31.7444H24.3856V36.5299H13.2218C12.8328 36.5299 12.5173 36.8453 12.5173 37.2344C12.5173 37.6236 12.8328 37.9389 13.2218 37.9389H24.3856V40.6029C24.3856 40.992 24.701 41.3075 25.0901 41.3075C25.4793 41.3075 25.7947 40.992 25.7947 40.6029V17.8362C25.7947 17.1206 26.3768 16.5385 27.0923 16.5385H43.6833C44.3989 16.5385 44.9811 17.1207 44.9811 17.8362V23.4364C44.9811 23.8254 45.2965 24.1409 45.6856 24.1409C46.0747 24.1409 46.3901 23.8255 46.3901 23.4364V17.8362C46.3899 16.3438 45.1757 15.1296 43.6832 15.1296ZM28.143 7.55569V2.40535L34.4676 8.72991H29.3171C28.6697 8.72991 28.143 8.20322 28.143 7.55569Z" fill="#007CF4"/>
<path d="M42.9408 20.0215C42.9408 19.1151 42.2034 18.3777 41.297 18.3777H29.5996C28.6932 18.3777 27.9558 19.1151 27.9558 20.0215V23.9993C27.9558 24.9057 28.6932 25.6431 29.5996 25.6431H41.297C42.2034 25.6431 42.9408 24.9057 42.9408 23.9993V20.0215ZM41.5318 23.9992C41.5318 24.1287 41.4265 24.2341 41.297 24.2341H29.5996C29.4702 24.2341 29.3648 24.1287 29.3648 23.9992V20.0214C29.3648 19.8919 29.4702 19.7866 29.5996 19.7866H41.297C41.4265 19.7866 41.5318 19.8919 41.5318 20.0214V23.9992Z" fill="#007CF4"/>
<path d="M27.9558 31.4288C27.9558 32.2961 28.6615 33.0018 29.5287 33.0018H30.8702C31.7375 33.0018 32.4432 32.2961 32.4432 31.4288V30.0873C32.4432 29.22 31.7375 28.5144 30.8702 28.5144H29.5287C28.6615 28.5144 27.9558 29.2201 27.9558 30.0873V31.4288ZM29.3648 30.0874C29.3648 29.9971 29.4384 29.9235 29.5287 29.9235H30.8702C30.9606 29.9235 31.0342 29.9971 31.0342 30.0874V31.4289C31.0342 31.5193 30.9606 31.5929 30.8702 31.5929H29.5287C29.4384 31.5929 29.3648 31.5193 29.3648 31.4289V30.0874Z" fill="#007CF4"/>
<path d="M37.6919 30.0875C37.6919 29.2201 36.9863 28.5145 36.119 28.5145H34.7775C33.9102 28.5145 33.2046 29.2202 33.2046 30.0875V31.4289C33.2046 32.2962 33.9102 33.0019 34.7775 33.0019H36.119C36.9863 33.0019 37.6919 32.2962 37.6919 31.4289V30.0875ZM36.2829 31.4288C36.2829 31.5192 36.2093 31.5928 36.1189 31.5928H34.7775C34.6871 31.5928 34.6136 31.5192 34.6136 31.4288V30.0874C34.6136 29.997 34.6871 29.9234 34.7775 29.9234H36.119C36.2094 29.9234 36.283 29.997 36.283 30.0874V31.4288H36.2829Z" fill="#007CF4"/>
<path d="M42.9407 30.0875C42.9407 29.2201 42.2351 28.5145 41.3678 28.5145H40.0263C39.159 28.5145 38.4534 29.2202 38.4534 30.0875V31.4289C38.4534 32.2962 39.159 33.0019 40.0263 33.0019H41.3678C42.2351 33.0019 42.9407 32.2962 42.9407 31.4289V30.0875ZM41.5317 31.4288C41.5317 31.5192 41.4582 31.5928 41.3678 31.5928H40.0263C39.9359 31.5928 39.8623 31.5192 39.8623 31.4288V30.0874C39.8623 29.997 39.9359 29.9234 40.0263 29.9234H41.3678C41.4582 29.9234 41.5317 29.997 41.5317 30.0874V31.4288Z" fill="#007CF4"/>
<path d="M27.9558 37.173C27.9558 38.0402 28.6615 38.7459 29.5287 38.7459H30.8702C31.7375 38.7459 32.4432 38.0402 32.4432 37.173V35.8315C32.4432 34.9642 31.7375 34.2585 30.8702 34.2585H29.5287C28.6615 34.2585 27.9558 34.9641 27.9558 35.8315V37.173ZM29.3648 35.8315C29.3648 35.7411 29.4384 35.6675 29.5287 35.6675H30.8702C30.9606 35.6675 31.0342 35.741 31.0342 35.8315V37.173C31.0342 37.2633 30.9606 37.3369 30.8702 37.3369H29.5287C29.4384 37.3369 29.3648 37.2633 29.3648 37.173V35.8315Z" fill="#007CF4"/>
<path d="M37.6919 35.8315C37.6919 34.9642 36.9863 34.2585 36.119 34.2585H34.7775C33.9102 34.2585 33.2046 34.9641 33.2046 35.8315V37.173C33.2046 38.0402 33.9102 38.7459 34.7775 38.7459H36.119C36.9863 38.7459 37.6919 38.0402 37.6919 37.173V35.8315ZM36.2829 37.173C36.2829 37.2633 36.2093 37.3369 36.1189 37.3369H34.7775C34.6871 37.3369 34.6136 37.2633 34.6136 37.173V35.8315C34.6136 35.7411 34.6871 35.6675 34.7775 35.6675H36.119C36.2094 35.6675 36.283 35.741 36.283 35.8315V37.173H36.2829Z" fill="#007CF4"/>
<path d="M27.9558 42.917C27.9558 43.7843 28.6615 44.4899 29.5287 44.4899H30.8702C31.7375 44.4899 32.4432 43.7843 32.4432 42.917V41.5755C32.4432 40.7082 31.7375 40.0026 30.8702 40.0026H29.5287C28.6615 40.0026 27.9558 40.7081 27.9558 41.5755V42.917ZM29.3648 41.5756C29.3648 41.4852 29.4384 41.4116 29.5287 41.4116H30.8702C30.9606 41.4116 31.0342 41.4851 31.0342 41.5756V42.9171C31.0342 43.0074 30.9606 43.081 30.8702 43.081H29.5287C29.4384 43.081 29.3648 43.0074 29.3648 42.9171V41.5756Z" fill="#007CF4"/>
<path d="M36.1189 40.0028H34.7775C33.9102 40.0028 33.2046 40.7084 33.2046 41.5757V42.9172C33.2046 43.7845 33.9102 44.4902 34.7775 44.4902H36.119C36.9863 44.4902 37.6919 43.7845 37.6919 42.9172V41.5757C37.6919 40.7084 36.9863 40.0028 36.1189 40.0028ZM36.2829 42.9171C36.2829 43.0075 36.2093 43.0811 36.1189 43.0811H34.7775C34.6871 43.0811 34.6136 43.0075 34.6136 42.9171V41.5757C34.6136 41.4853 34.6871 41.4117 34.7775 41.4117H36.119C36.2094 41.4117 36.283 41.4852 36.283 41.5757V42.9171H36.2829Z" fill="#007CF4"/>
<path d="M41.2347 34.2585H40.1593C39.2186 34.2585 38.4534 35.0238 38.4534 35.9645V42.7841C38.4534 43.7248 39.2186 44.49 40.1593 44.49H41.2347C42.1754 44.49 42.9407 43.7248 42.9407 42.7841V35.9645C42.9407 35.0238 42.1754 34.2585 41.2347 34.2585ZM41.5317 42.7841C41.5317 42.9479 41.3985 43.0811 41.2347 43.0811H40.1593C39.9956 43.0811 39.8623 42.9479 39.8623 42.7841V35.9645C39.8623 35.8007 39.9956 35.6676 40.1593 35.6676H41.2347C41.3985 35.6676 41.5317 35.8008 41.5317 35.9645V42.7841Z" fill="#007CF4"/>
<path d="M7.23822 13.1611H10.0504C10.4395 13.1611 10.755 12.8458 10.755 12.4566C10.755 12.0675 10.4396 11.7521 10.0504 11.7521H7.23822C6.84916 11.7521 6.53369 12.0675 6.53369 12.4566C6.53369 12.8457 6.84916 13.1611 7.23822 13.1611Z" fill="#007CF4"/>
<path d="M13.2209 13.1611H26.78C27.169 13.1611 27.4845 12.8458 27.4845 12.4566C27.4845 12.0675 27.169 11.7521 26.78 11.7521H13.2209C12.8318 11.7521 12.5164 12.0675 12.5164 12.4566C12.5165 12.8457 12.8318 13.1611 13.2209 13.1611Z" fill="#007CF4"/>
<path d="M7.23822 19.3555H10.0504C10.4395 19.3555 10.755 19.04 10.755 18.6509C10.755 18.2619 10.4396 17.9464 10.0504 17.9464H7.23822C6.84916 17.9464 6.53369 18.2618 6.53369 18.6509C6.53369 19.0401 6.84916 19.3555 7.23822 19.3555Z" fill="#007CF4"/>
<path d="M7.23822 25.5499H10.0504C10.4395 25.5499 10.755 25.2345 10.755 24.8454C10.755 24.4563 10.4396 24.1409 10.0504 24.1409H7.23822C6.84916 24.1409 6.53369 24.4563 6.53369 24.8454C6.53369 25.2345 6.84916 25.5499 7.23822 25.5499Z" fill="#007CF4"/>
<path d="M7.23822 31.7444H10.0504C10.4395 31.7444 10.755 31.4289 10.755 31.0399C10.755 30.6508 10.4396 30.3353 10.0504 30.3353H7.23822C6.84916 30.3353 6.53369 30.6508 6.53369 31.0399C6.53369 31.429 6.84916 31.7444 7.23822 31.7444Z" fill="#007CF4"/>
<path d="M7.23822 37.9387H10.0504C10.4395 37.9387 10.755 37.6234 10.755 37.2342C10.755 36.845 10.4396 36.5297 10.0504 36.5297H7.23822C6.84916 36.5297 6.53369 36.845 6.53369 37.2342C6.53369 37.6234 6.84916 37.9387 7.23822 37.9387Z" fill="#007CF4"/>
</g>
<defs>
<clipPath id="clip0">
<rect width="48" height="48" fill="white"/>
</clipPath>
</defs>
</svg>
