<svg width="50" height="50" viewBox="0 0 50 50" fill="none" xmlns="http://www.w3.org/2000/svg">
<path d="M37.2294 48.1457C30.7251 53.6351 22.2603 44.1555 28.2572 38.1356L37.6215 28.7713C39.8818 26.511 41.035 23.5356 41.035 20.5603C41.035 17.5849 39.9049 14.6096 37.6215 12.3492C33.0777 7.80547 25.7201 7.80547 21.1994 12.3492L11.7428 21.8058C5.72295 27.8257 -3.82585 19.3609 1.61743 12.7875C2.54001 11.6803 3.73938 10.85 5.28472 10.4349L18.916 6.79063L28.9722 4.09205C33.3314 2.91575 37.5292 3.95367 40.7121 6.30627C41.1273 6.60611 41.5194 6.95208 41.9115 7.29805L41.9346 7.32112C42.0499 7.43644 42.1652 7.55176 42.2805 7.66709C42.3959 7.78241 42.5112 7.9208 42.6265 8.03612L42.6726 8.05919C43.0186 8.45129 43.3646 8.84339 43.6644 9.28162C46.017 12.4645 47.0319 16.6623 45.8786 21.0216L43.1801 31.1008L39.605 44.4553C39.1899 46.0007 38.3595 47.2 37.2294 48.1457Z" fill="#007CF4"/>
<path d="M48.0697 13.387C48.2081 10.4117 47.1471 7.36715 44.8637 5.10681C44.2871 4.53019 43.6644 4.02277 42.9955 3.6076C41.058 2.36211 38.7977 1.78549 36.5835 1.90081L44.7945 0.101765C47.3317 -0.451788 49.6381 1.3242 49.961 3.69986C50.0302 4.18422 50.0072 4.69164 49.8918 5.19907L48.0697 13.387Z" fill="#007CF4"/>
<path d="M34.4615 25.6114L25.3049 34.7681C24.5437 35.5293 23.6673 36.0828 22.7216 36.4288C20.1614 37.3744 17.1861 36.8209 15.1333 34.7681C13.7264 33.3612 13.0344 31.516 13.0344 29.6939C13.0344 27.8487 13.7494 26.0035 15.1333 24.6197L24.29 15.463C27.1039 12.6491 31.6477 12.6491 34.4615 15.463C34.5769 15.5783 34.6922 15.7167 34.8075 15.832C37.2524 18.6459 37.1371 22.9359 34.4615 25.6114Z" fill="#007CF4"/>
</svg>
