<svg width="48" height="48" viewBox="0 0 48 48" fill="none" xmlns="http://www.w3.org/2000/svg">
<path d="M32.0581 30.7835C30.9208 30.7835 29.9956 29.9827 29.9956 28.9984C29.9956 28.014 30.9208 27.2132 32.0581 27.2132C33.1954 27.2132 34.1206 28.014 34.1206 28.9984C34.1206 29.5161 34.5404 29.9359 35.0581 29.9359C35.5758 29.9359 35.9956 29.5161 35.9956 28.9984C35.9956 27.2804 34.7155 25.836 32.9956 25.4439V24.9563C32.9956 24.4386 32.5758 24.0188 32.0581 24.0188C31.5404 24.0188 31.1206 24.4386 31.1206 24.9563V25.4439C29.4007 25.836 28.1206 27.2804 28.1206 28.9984C28.1206 31.0166 29.8869 32.6585 32.0581 32.6585C33.1954 32.6585 34.1206 33.4593 34.1206 34.4437C34.1206 35.4281 33.1954 36.2289 32.0581 36.2289C30.9208 36.2289 29.9956 35.4281 29.9956 34.4437C29.9956 33.926 29.5758 33.5062 29.0581 33.5062C28.5404 33.5062 28.1206 33.926 28.1206 34.4437C28.1206 36.1617 29.4007 37.6062 31.1206 37.9982V38.4032C31.1206 38.9209 31.5404 39.3407 32.0581 39.3407C32.5758 39.3407 32.9956 38.9209 32.9956 38.4032V37.9982C34.7155 37.6062 35.9956 36.1617 35.9956 34.4437C35.9956 32.4254 34.2292 30.7835 32.0581 30.7835Z" fill="#007CF4"/>
<path d="M42.3263 25.207C41.1017 23.2988 39.3763 21.7718 37.3368 20.7913C36.87 20.5669 36.3098 20.7634 36.0856 21.2301C35.8612 21.6968 36.0577 22.2568 36.5243 22.4812C40.0785 24.1897 42.3749 27.8402 42.3749 31.7812C42.3749 33.4676 41.9592 35.14 41.1729 36.6179C40.9297 37.0749 41.1031 37.6427 41.5602 37.8859C41.7005 37.9605 41.8512 37.9959 41.9997 37.9959C42.3351 37.9959 42.6596 37.8154 42.8282 37.4986C43.7583 35.7507 44.2499 33.7736 44.2499 31.7812C44.2499 29.4412 43.5847 27.1679 42.3263 25.207Z" fill="#007CF4"/>
<path d="M33.5318 19.594L33.4688 19.5939C32.9511 19.5939 32.5312 20.0136 32.5312 20.5314C32.5312 21.0492 32.9511 21.4689 33.4688 21.4689L33.523 21.469C33.5245 21.469 33.5259 21.469 33.5275 21.469C34.0433 21.469 34.4625 21.0521 34.4649 20.5359C34.4673 20.0181 34.0495 19.5964 33.5318 19.594Z" fill="#007CF4"/>
<path d="M27.6007 41.0814C24.0466 39.3728 21.7502 35.7223 21.7502 31.7813C21.7502 30.0949 22.1659 28.4225 22.9522 26.9447C23.1954 26.4876 23.022 25.9199 22.5649 25.6767C22.108 25.4335 21.5401 25.6068 21.297 26.064C20.3669 27.8119 19.8752 29.7889 19.8752 31.7813C19.8752 34.1213 20.5404 36.3945 21.7988 38.3555C23.0235 40.2638 24.7488 41.7908 26.7884 42.7713C26.9193 42.8343 27.0577 42.864 27.1939 42.864C27.543 42.864 27.8781 42.6682 28.0395 42.3326C28.2637 41.8659 28.0674 41.3057 27.6007 41.0814Z" fill="#007CF4"/>
<path d="M30.6563 42.0937L30.602 42.0935C30.0819 42.0926 29.6626 42.5087 29.6603 43.0266C29.6579 43.5444 30.0758 43.9661 30.5935 43.9685L30.6563 43.9687C31.174 43.9687 31.5938 43.5489 31.5938 43.0312C31.5938 42.5135 31.174 42.0937 30.6563 42.0937Z" fill="#007CF4"/>
<path d="M36.3195 16.422C36.2054 16.1501 36.0657 15.8939 35.903 15.6562H38.3437C40.7215 15.6562 42.6562 13.7216 42.6562 11.3437C42.6562 8.96586 40.7215 7.03124 38.3437 7.03124H30.8362C31.3135 6.3373 31.5937 5.49777 31.5937 4.59374C31.5937 2.21587 29.6591 0.28125 27.2812 0.28125H4.31249C1.93462 0.28125 0 2.21587 0 4.59374C0 6.97161 1.93462 8.90623 4.31249 8.90623H11.82C11.3427 9.60017 11.0625 10.4397 11.0625 11.3437C11.0625 12.2478 11.3426 13.0873 11.82 13.7812H9.37498C6.99711 13.7812 5.06249 15.7158 5.06249 18.0937C5.06249 19.4594 5.7013 20.678 6.69514 21.4687C5.7013 22.2594 5.06249 23.4781 5.06249 24.8437C5.06249 26.2094 5.7013 27.428 6.69514 28.2187C5.7013 29.0094 5.06249 30.228 5.06249 31.5937C5.06249 32.9593 5.7013 34.178 6.69514 34.9687C5.7013 35.7594 5.06249 36.978 5.06249 38.3437C5.06249 40.7215 6.99711 42.6562 9.37498 42.6562H20.4234C23.334 45.7693 27.4745 47.7188 32.0625 47.7188C40.8505 47.7188 48 40.5692 48 31.7813C48 24.4672 43.0472 18.289 36.3195 16.422ZM38.3437 8.90623C39.6878 8.90623 40.7812 9.99973 40.7812 11.3437C40.7812 12.6877 39.6878 13.7812 38.3437 13.7812H32.3437H15.375C14.0309 13.7812 12.9375 12.6877 12.9375 11.3437C12.9375 9.99973 14.0309 8.90623 15.375 8.90623H38.3437ZM4.31249 7.03124C2.9684 7.03124 1.875 5.93774 1.875 4.59374C1.875 3.24974 2.9684 2.15625 4.31249 2.15625H27.2812C28.6253 2.15625 29.7187 3.24974 29.7187 4.59374C29.7187 5.93774 28.6253 7.03124 27.2812 7.03124H4.31249ZM9.37498 15.6562H32.3437C32.7213 15.6562 33.0829 15.744 33.4073 15.9011C32.9638 15.8639 32.5155 15.8438 32.0625 15.8438C27.6614 15.8438 23.6715 17.6372 20.7845 20.5312H9.37498C8.03098 20.5312 6.93749 19.4377 6.93749 18.0937C6.93749 16.7497 8.03098 15.6562 9.37498 15.6562ZM9.37498 22.4062H19.1826C18.1184 23.8643 17.2955 25.5089 16.773 27.2812H9.37498C8.03089 27.2812 6.93749 26.1878 6.93749 24.8437C6.93749 23.4997 8.03089 22.4062 9.37498 22.4062ZM9.37498 29.1562H16.3425C16.2003 30.0105 16.1251 30.8872 16.1251 31.7813C16.1251 32.545 16.1803 33.2959 16.2846 34.0312H9.37498C8.03089 34.0312 6.93749 32.9378 6.93749 31.5937C6.93749 30.2496 8.03089 29.1562 9.37498 29.1562ZM9.37498 40.7812C8.03089 40.7812 6.93749 39.6878 6.93749 38.3437C6.93749 36.9996 8.03089 35.9062 9.37498 35.9062H16.6674C17.1405 37.6699 17.9089 39.3136 18.9167 40.7812H9.37498ZM32.0625 45.8438C24.3085 45.8438 18.0001 39.5353 18.0001 31.7813C18.0001 24.0272 24.3085 17.7188 32.0625 17.7188C39.8166 17.7188 46.125 24.0272 46.125 31.7813C46.125 39.5353 39.8166 45.8438 32.0625 45.8438Z" fill="#007CF4"/>
</svg>
