<svg width="48" height="48" viewBox="0 0 48 48" fill="none" xmlns="http://www.w3.org/2000/svg">
<path d="M24.0001 48C17.5862 48 11.5628 45.5062 7.03934 40.9779C-2.31194 31.6162 -2.31194 16.3838 7.03934 7.02225C11.5628 2.49394 17.5861 0 24 0C30.4139 0 36.4373 2.49384 40.9606 7.02206C50.3119 16.3837 50.3119 31.6162 40.9606 40.9778L40.2973 40.3153L40.9606 40.9778C36.4374 45.5062 30.4139 48 24.0001 48ZM24 1.875C18.0874 1.875 12.5351 4.17366 8.3659 8.34731C-0.255535 16.9782 -0.255535 31.0218 8.3659 39.6528C12.5351 43.8264 18.0874 46.125 24 46.125C29.9127 46.125 35.465 43.8264 39.6341 39.6528C48.2556 31.0219 48.2556 16.9782 39.6341 8.34722C35.465 4.17356 29.9127 1.875 24 1.875Z" fill="#007CF4"/>
<path d="M24.0001 42.4122C19.0795 42.4122 14.4584 40.499 10.9881 37.0248C8.2157 34.2493 6.43135 30.7335 5.82807 26.8575C5.74839 26.3459 6.09864 25.8666 6.61023 25.787C7.12089 25.7074 7.60107 26.0574 7.68076 26.5691C8.22264 30.0499 9.82501 33.2072 12.3148 35.6997C15.4309 38.8192 19.5809 40.5373 24.0003 40.5373C28.4197 40.5373 32.5696 38.8193 35.6858 35.6997C42.1299 29.2484 42.1299 18.7516 35.6858 12.3003C32.5695 9.18074 28.4195 7.46277 24.0001 7.46277C19.5807 7.46277 15.4308 9.18074 12.3146 12.3004C10.9554 13.661 9.85567 15.2271 9.04548 16.9554C8.82564 17.4242 8.26745 17.6262 7.7987 17.4065C7.32985 17.1867 7.12801 16.6285 7.34776 16.1597C8.25029 14.2341 9.47504 12.4898 10.9881 10.9752C14.4584 7.50102 19.0795 5.58777 24.0001 5.58777C28.9207 5.58777 33.5418 7.50102 37.0121 10.9752C44.1862 18.1571 44.1862 29.843 37.0121 37.0249C33.5419 40.499 28.9208 42.4122 24.0001 42.4122Z" fill="#007CF4"/>
<path d="M6.75752 22.2027C6.36049 22.2027 5.99777 21.9428 5.87064 21.5665C5.74389 21.1913 5.8712 20.7628 6.18695 20.5217C6.48995 20.2902 6.91211 20.2674 7.2393 20.462C7.57455 20.6612 7.75502 21.0663 7.67721 21.449C7.58917 21.8814 7.19927 22.2027 6.75752 22.2027Z" fill="#007CF4"/>
<path d="M35.8284 23.8978C35.4362 23.8978 35.0787 23.6441 34.9466 23.2757C34.8132 22.9037 34.9337 22.4756 35.2427 22.2285C35.5437 21.9876 35.9734 21.9575 36.3054 22.1533C36.6441 22.353 36.8254 22.7573 36.7481 23.1431C36.6612 23.576 36.2704 23.8978 35.8284 23.8978Z" fill="#007CF4"/>
<path d="M35.5849 26.7782C35.0916 26.6197 34.5638 26.8906 34.4052 27.3834C33.8723 29.0393 32.9743 30.5072 31.7365 31.7464C31.2731 32.2103 30.7732 32.6286 30.2414 32.9987V30.3476C30.2414 29.0302 29.1704 27.9586 27.854 27.9586H20.1461C18.8297 27.9586 17.7587 29.0303 17.7587 30.3476V32.9986C17.227 32.6285 16.727 32.2101 16.2636 31.7463C11.996 27.4749 11.996 20.525 16.2638 16.2535C18.3266 14.1881 21.074 13.0505 24 13.0505C26.9261 13.0505 29.6736 14.1881 31.7367 16.254C32.5679 17.0852 33.2551 18.0368 33.7792 19.0824C34.0113 19.5453 34.5746 19.7321 35.0374 19.5005C35.5003 19.2685 35.6876 18.7053 35.4555 18.2423C34.8412 17.0167 34.0361 15.9017 33.0629 14.9285C30.646 12.5084 27.4273 11.1755 23.9999 11.1755C20.5725 11.1755 17.3539 12.5084 14.937 14.9283C9.9393 19.9304 9.9393 28.0695 14.9369 33.0713C15.92 34.0556 17.0442 34.8663 18.2783 35.4807C18.2789 35.481 18.2795 35.4813 18.2801 35.4815C20.0711 36.3743 22.0355 36.8208 23.9999 36.8208C25.9644 36.8208 27.9288 36.3743 29.7198 35.4814C29.7205 35.4812 29.721 35.4809 29.7217 35.4806C30.9557 34.8661 32.0799 34.0555 33.0629 33.0713C34.4926 31.6402 35.5739 29.872 36.1901 27.9576C36.3487 27.465 36.0778 26.9368 35.5849 26.7782ZM19.6337 34.0445V30.3476C19.6337 30.0642 19.8636 29.8336 20.1461 29.8336H27.854C28.1366 29.8336 28.3664 30.0642 28.3664 30.3476V34.0445C25.594 35.2479 22.4061 35.2479 19.6337 34.0445Z" fill="#007CF4"/>
<path d="M18.7136 22.0529C18.7136 24.9704 21.0851 27.3439 24.0001 27.3439C26.9151 27.3439 29.2866 24.9704 29.2866 22.0529C29.2866 19.1353 26.9151 16.7617 24.0001 16.7617C21.0851 16.7617 18.7136 19.1353 18.7136 22.0529ZM27.4115 22.0529C27.4115 23.9365 25.8811 25.4689 24 25.4689C22.1189 25.4689 20.5885 23.9364 20.5885 22.0529C20.5885 20.1692 22.1189 18.6367 24 18.6367C25.8811 18.6367 27.4115 20.1692 27.4115 22.0529Z" fill="#007CF4"/>
</svg>
