<svg width="143" height="112" viewBox="0 0 143 112" fill="none" xmlns="http://www.w3.org/2000/svg">
<g clip-path="url(#clip0)">
<path d="M20.0029 44.0957C9.22121 46.9133 2.83728 57.902 5.67458 68.6089C8.51188 79.3158 19.5774 85.6554 30.3591 82.8378C41.1408 80.0202 47.5248 69.0315 44.6875 58.3246C41.8502 47.7586 30.7847 41.2781 20.0029 44.0957ZM27.9474 73.6806C22.2728 75.2303 16.4563 71.8491 15.0377 66.2139C13.4772 60.5787 16.8819 54.8026 22.5565 53.3938C28.2311 51.8441 34.0476 55.2252 35.4662 60.8605C36.8849 66.4957 33.622 72.2718 27.9474 73.6806Z" fill="#E8E8E8"/>
<path d="M25.8194 47.4767L17.0238 49.7308C17.0238 49.7308 13.619 43.1094 14.754 41.278C15.8889 39.3057 21.7053 37.6151 23.5496 39.0239C25.252 40.2918 25.8194 47.4767 25.8194 47.4767Z" fill="#E8E8E8"/>
<path d="M32.9127 77.6252L24.1171 79.8793C24.1171 79.8793 24.4008 87.2051 26.3869 88.3322C28.373 89.4592 34.1895 88.0504 35.1825 86.0781C36.0337 84.1057 32.9127 77.6252 32.9127 77.6252Z" fill="#E8E8E8"/>
<path d="M13.4771 51.8441L9.93049 60.156C9.93049 60.156 2.69537 58.7472 1.84418 56.7749C0.992994 54.6617 3.26283 49.0265 5.39081 48.4629C7.51879 47.8994 13.4771 51.8441 13.4771 51.8441Z" fill="#E8E8E8"/>
<path d="M9.64678 64.1006L10.498 73.117C10.498 73.117 3.40472 75.3711 1.70234 73.9623C-4.33493e-05 72.5535 -0.709369 66.4956 0.851147 64.9459C2.55353 63.3962 9.64678 64.1006 9.64678 64.1006Z" fill="#E8E8E8"/>
<path d="M41.4246 64.5232L39.4385 55.6477C39.4385 55.6477 46.248 52.5484 48.0923 53.8163C50.0784 55.0842 51.497 60.8603 50.0784 62.6917C48.6597 64.3823 41.4246 64.5232 41.4246 64.5232Z" fill="#E8E8E8"/>
<path d="M29.366 47.4767L36.6011 52.9711C36.6011 52.9711 42.2757 48.1811 41.992 46.0679C41.7082 43.8138 37.0267 40.01 34.7568 40.5736C32.487 40.9962 29.366 47.4767 29.366 47.4767Z" fill="#E8E8E8"/>
<path d="M19.7192 80.4428L12.4841 74.9485C12.4841 74.9485 6.80945 79.7384 7.09318 81.8516C7.37691 84.1057 12.0585 87.9095 14.3283 87.346C16.4563 86.9233 19.7192 80.4428 19.7192 80.4428Z" fill="#E8E8E8"/>
<path d="M37.3105 76.0755L40.8572 67.7635C40.8572 67.7635 48.0923 69.1724 48.9435 71.1447C49.7947 73.2579 47.5248 78.8931 45.3969 79.4566C43.2689 80.161 37.3105 76.0755 37.3105 76.0755Z" fill="#E8E8E8"/>
<path d="M98.7381 20.4277C87.9563 23.2453 81.5724 34.234 84.4097 44.9409C87.247 55.6478 98.3125 61.9875 109.094 59.1699C119.876 56.3522 126.26 45.3636 123.423 34.6566C120.443 23.9497 109.52 17.6101 98.7381 20.4277ZM106.541 50.0126C100.866 51.5623 95.0496 48.1812 93.6309 42.546C92.0704 36.9107 95.4752 31.1346 101.15 29.7258C106.824 28.1761 112.641 31.5573 114.059 37.1925C115.62 42.6868 112.215 48.4629 106.541 50.0126Z" fill="#E8E8E8"/>
<path d="M104.413 23.668L95.6171 25.9221C95.6171 25.9221 92.2123 19.3007 93.3472 17.4693C94.4821 15.497 100.299 13.8064 102.143 15.2152C103.987 16.4831 104.413 23.668 104.413 23.668Z" fill="#E8E8E8"/>
<path d="M111.506 53.8165L102.71 56.0706C102.71 56.0706 102.994 63.3964 104.98 64.5234C106.966 65.6505 112.783 64.2417 113.776 62.2694C114.627 60.297 111.506 53.8165 111.506 53.8165Z" fill="#E8E8E8"/>
<path d="M92.0704 28.1761L88.5238 36.4881C88.5238 36.4881 81.2886 35.0793 80.4374 33.107C79.5863 30.9938 81.8561 25.3585 83.9841 24.795C86.112 24.0906 92.0704 28.1761 92.0704 28.1761Z" fill="#E8E8E8"/>
<path d="M88.2401 40.4328L89.0912 49.4492C89.0912 49.4492 81.998 51.7032 80.2956 50.2944C78.5932 48.8856 77.742 42.8278 79.4444 41.2781C81.1468 39.7284 88.2401 40.4328 88.2401 40.4328Z" fill="#E8E8E8"/>
<path d="M120.018 40.7145L118.032 31.839C118.032 31.839 124.841 28.7396 126.686 30.0076C128.672 31.2755 130.09 37.0516 128.672 38.883C127.253 40.5736 120.018 40.7145 120.018 40.7145Z" fill="#E8E8E8"/>
<path d="M107.959 23.668L115.194 29.1623C115.194 29.1623 120.869 24.3724 120.585 22.2592C120.302 20.0051 115.62 16.2013 113.35 16.7649C111.222 17.1875 107.959 23.668 107.959 23.668Z" fill="#E8E8E8"/>
<path d="M98.3124 56.6341L91.0773 51.1398C91.0773 51.1398 85.4027 55.9297 85.6864 58.0429C85.9702 60.297 90.6517 64.1008 92.9216 63.5373C95.0495 63.1146 98.3124 56.6341 98.3124 56.6341Z" fill="#E8E8E8"/>
<path d="M115.904 52.4077L119.45 44.0957C119.45 44.0957 126.686 45.5045 127.537 47.4768C128.388 49.59 126.118 55.2253 123.99 55.7888C122.004 56.3523 115.904 52.4077 115.904 52.4077Z" fill="#E8E8E8"/>
<path d="M128.246 2.6767C122.997 4.08551 119.876 9.29809 121.295 14.5107C122.713 19.7232 127.962 22.8226 133.211 21.4138C138.46 20.005 141.581 14.7924 140.163 9.57985C138.886 4.50815 133.495 1.40878 128.246 2.6767ZM132.076 17.0465C129.381 17.7509 126.544 16.2012 125.834 13.3836C125.125 10.7069 126.685 7.88928 129.523 7.18488C132.218 6.48048 135.056 8.03016 135.765 10.8478C136.474 13.5245 134.772 16.3421 132.076 17.0465Z" fill="#E8E8E8"/>
<path d="M131.083 4.36733L126.827 5.49437C126.827 5.49437 125.267 2.25412 125.692 1.40884C126.26 0.422674 129.097 -0.422609 129.948 0.281794C130.799 0.845316 131.083 4.36733 131.083 4.36733Z" fill="#E8E8E8"/>
<path d="M134.488 18.8781L130.232 20.0051C130.232 20.0051 130.374 23.5271 131.367 24.0906C132.36 24.6542 135.197 23.9497 135.623 22.9636C136.049 21.9774 134.488 18.8781 134.488 18.8781Z" fill="#E8E8E8"/>
<path d="M125.125 6.4805L123.423 10.4251C123.423 10.4251 119.876 9.72075 119.45 8.73458C119.025 7.74842 120.16 5.07169 121.153 4.64905C122.146 4.50817 125.125 6.4805 125.125 6.4805Z" fill="#E8E8E8"/>
<path d="M123.281 12.3976L123.706 16.7649C123.706 16.7649 120.301 17.8919 119.45 17.1875C118.599 16.4831 118.315 13.6655 119.025 12.8202C119.734 12.1158 123.281 12.3976 123.281 12.3976Z" fill="#E8E8E8"/>
<path d="M138.602 12.5384L137.609 8.31195C137.609 8.31195 140.872 6.76227 141.723 7.46667C142.716 8.03019 143.426 10.8478 142.716 11.6931C142.149 12.5384 138.602 12.5384 138.602 12.5384Z" fill="#E8E8E8"/>
<path d="M132.786 4.36737L136.19 6.90322C136.19 6.90322 138.886 4.64913 138.744 3.52209C138.602 2.39504 136.332 0.563595 135.197 0.845356C134.346 1.12712 132.786 4.36737 132.786 4.36737Z" fill="#E8E8E8"/>
<path d="M128.104 20.2868L124.557 17.6101C124.557 17.6101 121.862 19.8642 122.004 20.9912C122.146 22.1183 124.416 23.9497 125.55 23.668C126.544 23.3862 128.104 20.2868 128.104 20.2868Z" fill="#E8E8E8"/>
<path d="M136.616 18.1737L138.318 14.0881C138.318 14.0881 141.865 14.7925 142.291 15.7787C142.716 16.7649 141.581 19.4416 140.588 19.8642C139.453 20.146 136.616 18.1737 136.616 18.1737Z" fill="#E8E8E8"/>
<path d="M114.911 66.0731C114.911 91.4315 94.1983 112.141 68.5207 112.141C42.985 112.141 22.1309 91.5724 22.1309 66.0731C22.1309 40.5737 42.8432 20.0051 68.5207 20.0051C94.0564 20.0051 114.911 40.7146 114.911 66.0731Z" fill="#F6F6F6"/>
<path d="M106.824 66.073C106.824 87.0642 89.6588 104.111 68.5209 104.111C47.383 104.111 30.2173 87.0642 30.2173 66.073C30.2173 45.0818 47.383 28.0353 68.5209 28.0353C89.6588 28.0353 106.824 45.0818 106.824 66.073Z" fill="white"/>
<path d="M98.3125 66.073C98.3125 82.4151 84.9771 95.6579 68.5208 95.6579C52.0644 95.6579 38.7291 82.4151 38.7291 66.073C38.7291 49.7308 52.0644 36.488 68.5208 36.488C84.9771 36.488 98.3125 49.7308 98.3125 66.073Z" fill="#F6F6F6"/>
<path d="M88.7475 66.4825C88.7475 77.6164 79.7112 86.59 68.4995 86.59C57.2878 86.59 48.2515 77.6164 48.2515 66.4825C48.2515 55.3486 57.2878 46.375 68.4995 46.375C79.7112 46.375 88.7475 55.3486 88.7475 66.4825Z" fill="white"/>
<path d="M75.3303 66.0729C75.3303 69.7358 72.3512 72.8352 68.5208 72.8352C64.8323 72.8352 61.7113 69.8767 61.7113 66.0729C61.7113 62.41 64.6905 59.3107 68.5208 59.3107C72.2093 59.3107 75.3303 62.41 75.3303 66.0729Z" fill="#F6F6F6"/>
<path d="M35.1174 27.9662L33.8566 29.1021L68.4574 66.9761L69.7182 65.8402L35.1174 27.9662Z" fill="#007CF4"/>
<path d="M68.1213 66.466C68.1213 66.8886 68.5469 67.3113 68.9725 67.3113C69.3981 67.3113 69.8237 66.8886 69.8237 66.466C69.8237 66.0434 69.3981 65.6207 68.9725 65.6207C68.5469 65.6207 68.1213 66.0434 68.1213 66.466Z" fill="#007CF4"/>
<path d="M32.3713 17.7213L31.6619 23.0748H25.7036L40.3157 41.1075L46.9834 42.3754L46.6996 35.3314L32.3713 17.7213Z" fill="#007CF4"/>
</g>
<defs>
<clipPath id="clip0">
<rect width="143" height="112" fill="white"/>
</clipPath>
</defs>
</svg>
